Coordinates
version=1
nRows=11
nColumns=36
inDegrees=yes

Units are S.I. units (second, meters, Newtons, ...)
If the header above contains a line with 'inDegrees', this indicates whether rotational values are in degrees (yes) or radians (no).

endheader
time	pelvis_tilt	pelvis_list	pelvis_rotation	pelvis_tx	pelvis_ty	pelvis_tz	hip_flexion_r	hip_adduction_r	hip_rotation_r	knee_angle_r	knee_angle_r_beta	ankle_angle_r	subtalar_angle_r	mtp_angle_r	hip_flexion_l	hip_adduction_l	hip_rotation_l	knee_angle_l	knee_angle_l_beta	ankle_angle_l	subtalar_angle_l	mtp_angle_l	lumbar_extension	lumbar_bending	lumbar_rotation	arm_flex_r	arm_add_r	arm_rot_r	elbow_flex_r	pro_sup_r	arm_flex_l	arm_add_l	arm_rot_l	elbow_flex_l	pro_sup_l
      1.97000000	    -20.15392897	     -5.48689494	      0.68441172	     -0.34034280	      0.66431959	     -0.59170073	     77.50841327	     -5.50839760	     -2.20831207	     93.90108452	      1.63888310	     31.14848596	    -16.34346786	     -7.45495159	     80.53290492	     -3.76068720	     10.85875562	     96.21006290	      1.67918237	     33.92321468	     -8.12819186	     -7.45495159	    -33.89738153	      4.90666992	     -2.40787969	     30.11311606	    -10.58723362	      7.26156321	     34.06417723	    104.06221612	     36.01569760	    -12.96614700	      0.43088726	     27.83196802	     79.31600628
      1.98000000	    -20.01849222	     -5.32713238	      0.38036231	     -0.33772129	      0.67539917	     -0.59131847	     75.98770999	     -5.00615095	     -2.11941947	     91.89583610	      1.60388491	     30.29194835	    -16.93171662	     -7.45750233	     78.33339609	     -2.70634600	     11.93713740	     94.16183126	      1.64343399	     32.67747571	    -11.14396157	     -7.45750233	    -33.10108899	      4.45022658	     -1.93564227	     31.22529282	    -10.91142958	      3.65073823	     39.23903814	    102.94695622	     38.71372550	    -12.02304014	     -1.05903308	     31.46989836	     79.48566557
      1.99000000	    -19.76720013	     -5.29671853	      0.40270718	     -0.33565442	      0.68723758	     -0.59110097	     74.20793395	     -4.62041369	     -2.09436167	     89.71469009	      1.56581673	     29.75402680	    -17.31275844	     -7.45852392	     76.33940325	     -2.41420548	     12.36568558	     92.02302929	      1.60610485	     32.40638125	    -11.48456820	     -7.45852392	    -32.38082184	      4.31179587	     -2.16450008	     33.47559483	    -11.50548128	      3.08976038	     43.47858990	    102.80984333	     40.82597007	    -12.35920329	      0.41213953	     36.50452110	     80.06320504
      2.00000000	    -19.63694666	     -5.14422260	      1.41365518	     -0.33488441	      0.70021289	     -0.59183983	     72.35952733	     -5.08548859	     -2.09659773	     87.27286272	      1.52319880	     29.13568800	    -17.78200612	     -7.45905347	     75.02261594	     -2.81235365	     11.05928153	     89.33406433	      1.55917356	     31.17341143	     -9.90625486	     -7.45905347	    -31.61202336	      4.42892438	     -3.21672920	     36.17578953	    -12.19786059	      2.67161087	     47.75124366	    102.84450232	     43.30916708	    -13.01225421	      2.32952565	     42.01279130	     80.68364495
      2.01000000	    -20.00035038	     -4.98222002	      2.48481921	     -0.33403120	      0.71275316	     -0.59239906	     71.01276308	     -5.60683307	     -2.15833305	     84.67660974	      1.47788564	     27.60886522	    -19.37145511	     -7.47112107	     74.21927434	     -3.53678661	      9.23438835	     86.45805833	      1.50897778	     30.96805080	     -7.50192749	     -7.47112107	    -30.27497875	      4.54413141	     -4.49071826	     38.52977682	    -12.77919767	      1.85648567	     53.60866883	    100.15251338	     45.15197684	    -14.59367424	      5.89980247	     50.15730709	     76.58840576
      2.02000000	    -19.79860007	     -4.73010502	      3.13612609	     -0.33198831	      0.72572723	     -0.59283282	     69.12441975	     -6.01205381	     -2.23015925	     82.21523930	      1.43492662	     26.81167756	    -19.58486746	     -7.47195984	     72.39636966	     -3.59521885	      8.33070947	     83.67067107	      1.46032870	     30.09911362	     -6.82538041	     -7.47195984	    -29.34590169	      4.35250936	     -5.53451848	     41.27999131	    -13.81733229	      2.21754388	     59.07843578	    100.57958186	     47.17497397	    -16.06069220	      8.17267217	     57.86767584	     77.42485486
      2.03000000	    -19.48241789	     -4.53254277	      3.35767506	     -0.32895391	      0.73847981	     -0.59277925	     67.15114901	     -5.98831269	     -2.23534458	     79.77748393	      1.39237976	     25.65519281	    -20.01063061	     -7.47286971	     70.23631154	     -3.44251106	      8.12894908	     80.98018036	      1.41337078	     29.16322794	     -7.18657391	     -7.47286971	    -28.33528625	      4.03350033	     -6.25700247	     44.06204724	    -15.06279902	      2.90694272	     64.86209298	    101.10711436	     49.11334667	    -17.62494635	     10.04347357	     66.01080299	     78.19568018
      2.04000000	    -19.17879581	     -4.37533074	      3.49222272	     -0.32536343	      0.75135621	     -0.59249528	     65.11894924	     -5.77414455	     -2.15518185	     77.23436767	      1.34799401	     24.39973290	    -20.54722119	     -7.47365454	     68.08556689	     -3.56817103	      7.75920691	     78.25105241	      1.36573851	     28.18518373	     -7.27708117	     -7.47365454	    -27.15622292	      3.71314690	     -6.83240544	     46.81170475	    -16.62993646	      3.93942223	     71.08259468	    101.60193014	     51.12332873	    -19.13539504	     11.68165900	     74.16254803	     78.96565278
      2.05000000	    -18.75497285	     -4.24665897	      3.66069479	     -0.32133161	      0.76477660	     -0.59233249	     62.85880360	     -5.57604002	     -2.07934136	     74.57323751	      1.30154853	     23.28236291	    -20.55651064	     -7.47401872	     65.79516620	     -3.86245639	      7.20817639	     75.44444145	      1.31675391	     27.08089040	     -6.78216522	     -7.47401872	    -25.98510613	      3.42942089	     -7.21274372	     49.64994232	    -18.67838710	      5.21013701	     77.41068481	    102.05376124	     53.39353550	    -20.34474566	     13.17725451	     81.92225610	     79.82625978
      2.06000000	    -18.58703028	     -4.26160637	      3.74923843	     -0.31687646	      0.77811241	     -0.59204311	     60.79858648	     -5.20384875	     -2.11209963	     71.70062519	      1.25141199	     20.86506126	    -22.25754253	     -7.47543490	     63.71281735	     -4.15925868	      6.87961238	     72.52589464	      1.26581565	     25.81111279	     -7.00173788	     -7.47543490	    -24.39477222	      3.42600585	     -7.80456690	     52.79592151	    -20.23175968	      6.50368924	     83.73230609	    102.27240371	     55.08077559	    -21.76743368	     13.62696265	     90.03997110	     80.29267216
      2.07000000	    -18.39914520	     -4.30887622	      3.74198446	     -0.31173178	      0.79175414	     -0.59153795	     58.58212631	     -4.79628708	     -2.18891549	     68.70837267	      1.19918733	     19.84153703	    -22.04920020	     -7.47577914	     61.51645034	     -4.60019430	      6.49078468	     69.54332047	      1.21375992	     24.77992081	     -6.51119213	     -7.47577914	    -22.65887429	      3.37387001	     -7.79140326	     55.70658583	    -22.22698262	      7.35623881	     90.23284530	    102.66750612	     57.18551218	    -22.74783231	     14.62618420	     97.08709267	     81.10249095
